<?xml version="1.0" encoding="UTF-8" standalone="no"?>
<!DOCTYPE svg PUBLIC "-//W3C//DTD SVG 1.1//EN"
 "http://www.w3.org/Graphics/SVG/1.1/DTD/svg11.dtd">
<!-- Generated by graphviz version 2.42.4 (0)
 -->
<!-- Title: architecture Pages: 1 -->
<svg width="638pt" height="931pt"
 viewBox="0.00 0.00 638.00 931.00" xmlns="http://www.w3.org/2000/svg" xmlns:xlink="http://www.w3.org/1999/xlink">
<g id="graph0" class="graph" transform="scale(1 1) rotate(0) translate(4 927)">
<title>architecture</title>
<polygon fill="white" stroke="transparent" points="-4,4 -4,-927 634,-927 634,4 -4,4"/>
<g id="clust1" class="cluster">
<title>cluster_UI</title>
<polygon fill="#f5f5f5" stroke="#000000" points="297,-8 297,-257 519,-257 519,-8 297,-8"/>
<text text-anchor="middle" x="408" y="-241.8" font-family="Times,serif" font-size="14.00">User Interaction Layer</text>
</g>
<g id="clust2" class="cluster">
<title>cluster_Knowledge</title>
<polygon fill="#f5f5f5" stroke="#000000" points="8,-767 8,-915 600,-915 600,-767 8,-767"/>
<text text-anchor="middle" x="304" y="-899.8" font-family="Times,serif" font-size="14.00">Knowledge Infrastructure</text>
</g>
<g id="clust3" class="cluster">
<title>cluster_Engine</title>
<polygon fill="#f5f5f5" stroke="#000000" points="258,-572 258,-734 504,-734 504,-572 258,-572"/>
<text text-anchor="middle" x="381" y="-718.8" font-family="Times,serif" font-size="14.00">Analytics Processing Core</text>
</g>
<g id="clust4" class="cluster">
<title>cluster_Output</title>
<polygon fill="#f5f5f5" stroke="#000000" points="221,-290 221,-452 503,-452 503,-290 221,-290"/>
<text text-anchor="middle" x="362" y="-436.8" font-family="Times,serif" font-size="14.00">Insight Delivery</text>
</g>
<!-- A -->
<g id="node1" class="node">
<title>A</title>
<path fill="#f5f5f5" stroke="black" d="M426.5,-226C426.5,-226 347.5,-226 347.5,-226 341.5,-226 335.5,-220 335.5,-214 335.5,-214 335.5,-202 335.5,-202 335.5,-196 341.5,-190 347.5,-190 347.5,-190 426.5,-190 426.5,-190 432.5,-190 438.5,-196 438.5,-202 438.5,-202 438.5,-214 438.5,-214 438.5,-220 432.5,-226 426.5,-226"/>
<text text-anchor="middle" x="387" y="-204.3" font-family="Helvetica,sans-Serif" font-size="14.00">Clinical User</text>
</g>
<!-- B -->
<g id="node2" class="node">
<title>B</title>
<path fill="#f5f5f5" stroke="black" d="M485,-139C485,-139 321,-139 321,-139 315,-139 309,-133 309,-127 309,-127 309,-115 309,-115 309,-109 315,-103 321,-103 321,-103 485,-103 485,-103 491,-103 497,-109 497,-115 497,-115 497,-127 497,-127 497,-133 491,-139 485,-139"/>
<text text-anchor="middle" x="403" y="-117.3" font-family="Helvetica,sans-Serif" font-size="14.00">Natural Language Query</text>
</g>
<!-- A&#45;&gt;B -->
<g id="edge1" class="edge">
<title>A&#45;&gt;B</title>
<path fill="none" stroke="#1e3a5f" d="M390.24,-189.8C392.43,-178.16 395.37,-162.55 397.87,-149.24"/>
<polygon fill="#1e3a5f" stroke="#1e3a5f" points="401.36,-149.65 399.77,-139.18 394.48,-148.36 401.36,-149.65"/>
<text text-anchor="middle" x="432" y="-160.8" font-family="Helvetica,sans-Serif" font-size="14.00">1. Initiates</text>
</g>
<!-- C -->
<g id="node3" class="node">
<title>C</title>
<path fill="#f5f5f5" stroke="black" d="M499,-52C499,-52 317,-52 317,-52 311,-52 305,-46 305,-40 305,-40 305,-28 305,-28 305,-22 311,-16 317,-16 317,-16 499,-16 499,-16 505,-16 511,-22 511,-28 511,-28 511,-40 511,-40 511,-46 505,-52 499,-52"/>
<text text-anchor="middle" x="408" y="-30.3" font-family="Helvetica,sans-Serif" font-size="14.00">Conversational AI Interface</text>
</g>
<!-- B&#45;&gt;C -->
<g id="edge2" class="edge">
<title>B&#45;&gt;C</title>
<path fill="none" stroke="#1e3a5f" d="M404.01,-102.8C404.7,-91.16 405.61,-75.55 406.4,-62.24"/>
<polygon fill="#1e3a5f" stroke="#1e3a5f" points="409.9,-62.36 406.99,-52.18 402.91,-61.95 409.9,-62.36"/>
<text text-anchor="middle" x="448" y="-73.8" font-family="Helvetica,sans-Serif" font-size="14.00">2. Transmits</text>
</g>
<!-- H -->
<g id="node8" class="node">
<title>H</title>
<path fill="#f5f5f5" stroke="black" d="M477,-703C477,-703 327,-703 327,-703 321,-703 315,-697 315,-691 315,-691 315,-679 315,-679 315,-673 321,-667 327,-667 327,-667 477,-667 477,-667 483,-667 489,-673 489,-679 489,-679 489,-691 489,-691 489,-697 483,-703 477,-703"/>
<text text-anchor="middle" x="402" y="-681.3" font-family="Helvetica,sans-Serif" font-size="14.00">Healthcare NLP Engine</text>
</g>
<!-- C&#45;&gt;H -->
<g id="edge7" class="edge">
<title>C&#45;&gt;H</title>
<path fill="none" stroke="#1e3a5f" d="M466.73,-52.1C497.56,-65.06 529,-86.5 529,-120 529,-599 529,-599 529,-599 529,-622.08 531.09,-632.46 515,-649 509.93,-654.21 504.1,-658.65 497.82,-662.43"/>
<polygon fill="#1e3a5f" stroke="#1e3a5f" points="496.14,-659.36 489,-667.19 499.46,-665.52 496.14,-659.36"/>
<text text-anchor="middle" x="579.5" y="-355.8" font-family="Helvetica,sans-Serif" font-size="14.00">3. Connects to</text>
</g>
<!-- D -->
<g id="node4" class="node">
<title>D</title>
<path fill="#f5f5f5" stroke="black" d="M404,-880.73C404,-882.53 364.11,-884 315,-884 265.89,-884 226,-882.53 226,-880.73 226,-880.73 226,-851.27 226,-851.27 226,-849.47 265.89,-848 315,-848 364.11,-848 404,-849.47 404,-851.27 404,-851.27 404,-880.73 404,-880.73"/>
<path fill="none" stroke="black" d="M404,-880.73C404,-878.92 364.11,-877.45 315,-877.45 265.89,-877.45 226,-878.92 226,-880.73"/>
<text text-anchor="middle" x="315" y="-862.3" font-family="Helvetica,sans-Serif" font-size="14.00">Organizational Memory</text>
</g>
<!-- G -->
<g id="node7" class="node">
<title>G</title>
<path fill="#f5f5f5" stroke="black" d="M424,-807.73C424,-809.53 375.14,-811 315,-811 254.86,-811 206,-809.53 206,-807.73 206,-807.73 206,-778.27 206,-778.27 206,-776.47 254.86,-775 315,-775 375.14,-775 424,-776.47 424,-778.27 424,-778.27 424,-807.73 424,-807.73"/>
<path fill="none" stroke="black" d="M424,-807.73C424,-805.92 375.14,-804.45 315,-804.45 254.86,-804.45 206,-805.92 206,-807.73"/>
<text text-anchor="middle" x="315" y="-789.3" font-family="Helvetica,sans-Serif" font-size="14.00">Institutional Knowledge Base</text>
</g>
<!-- D&#45;&gt;G -->
<g id="edge3" class="edge">
<title>D&#45;&gt;G</title>
<path fill="none" stroke="#1e3a5f" d="M315,-847.81C315,-839.79 315,-830.05 315,-821.07"/>
<polygon fill="#1e3a5f" stroke="#1e3a5f" points="318.5,-821.03 315,-811.03 311.5,-821.03 318.5,-821.03"/>
</g>
<!-- E -->
<g id="node5" class="node">
<title>E</title>
<path fill="#f5f5f5" stroke="black" d="M208,-880.73C208,-882.53 164.97,-884 112,-884 59.03,-884 16,-882.53 16,-880.73 16,-880.73 16,-851.27 16,-851.27 16,-849.47 59.03,-848 112,-848 164.97,-848 208,-849.47 208,-851.27 208,-851.27 208,-880.73 208,-880.73"/>
<path fill="none" stroke="black" d="M208,-880.73C208,-878.92 164.97,-877.45 112,-877.45 59.03,-877.45 16,-878.92 16,-880.73"/>
<text text-anchor="middle" x="112" y="-862.3" font-family="Helvetica,sans-Serif" font-size="14.00">Best Practices Repository</text>
</g>
<!-- E&#45;&gt;G -->
<g id="edge4" class="edge">
<title>E&#45;&gt;G</title>
<path fill="none" stroke="#1e3a5f" d="M160.62,-847.99C189.41,-837.92 226.08,-825.1 256.45,-814.48"/>
<polygon fill="#1e3a5f" stroke="#1e3a5f" points="257.79,-817.72 266.07,-811.11 255.47,-811.11 257.79,-817.72"/>
</g>
<!-- F -->
<g id="node6" class="node">
<title>F</title>
<path fill="#f5f5f5" stroke="black" d="M580,-884C580,-884 434,-884 434,-884 428,-884 422,-878 422,-872 422,-872 422,-860 422,-860 422,-854 428,-848 434,-848 434,-848 580,-848 580,-848 586,-848 592,-854 592,-860 592,-860 592,-872 592,-872 592,-878 586,-884 580,-884"/>
<text text-anchor="middle" x="507" y="-862.3" font-family="Helvetica,sans-Serif" font-size="14.00">Healthcare Ontologies</text>
</g>
<!-- F&#45;&gt;H -->
<g id="edge12" class="edge">
<title>F&#45;&gt;H</title>
<path fill="none" stroke="#1e3a5f" stroke-dasharray="5,2" d="M503.23,-847.96C497.19,-823.13 483.65,-776.22 461,-742 453.17,-730.18 442.41,-719.01 432.22,-709.81"/>
<polygon fill="#1e3a5f" stroke="#1e3a5f" points="434.44,-707.1 424.59,-703.18 429.84,-712.38 434.44,-707.1"/>
<text text-anchor="middle" x="560" y="-789.3" font-family="Helvetica,sans-Serif" font-size="14.00">Provides Semantics</text>
</g>
<!-- G&#45;&gt;H -->
<g id="edge11" class="edge">
<title>G&#45;&gt;H</title>
<path fill="none" stroke="#1e3a5f" stroke-dasharray="5,2" d="M323.14,-774.54C328.18,-764.55 335.18,-752.05 343,-742 351.91,-730.54 363.18,-719.25 373.48,-709.85"/>
<polygon fill="#1e3a5f" stroke="#1e3a5f" points="375.96,-712.32 381.1,-703.05 371.31,-707.09 375.96,-712.32"/>
<text text-anchor="middle" x="402" y="-745.8" font-family="Helvetica,sans-Serif" font-size="14.00">Provides Context</text>
</g>
<!-- I -->
<g id="node9" class="node">
<title>I</title>
<path fill="#f5f5f5" stroke="black" d="M484,-616C484,-616 278,-616 278,-616 272,-616 266,-610 266,-604 266,-604 266,-592 266,-592 266,-586 272,-580 278,-580 278,-580 484,-580 484,-580 490,-580 496,-586 496,-592 496,-592 496,-604 496,-604 496,-610 490,-616 484,-616"/>
<text text-anchor="middle" x="381" y="-594.3" font-family="Helvetica,sans-Serif" font-size="14.00">Context&#45;Aware SQL Generation</text>
</g>
<!-- H&#45;&gt;I -->
<g id="edge5" class="edge">
<title>H&#45;&gt;I</title>
<path fill="none" stroke="#1e3a5f" d="M379.57,-666.86C374.48,-661.73 369.76,-655.67 367,-649 363.9,-641.5 364.7,-633.1 367.06,-625.35"/>
<polygon fill="#1e3a5f" stroke="#1e3a5f" points="370.33,-626.59 370.69,-616 363.81,-624.06 370.33,-626.59"/>
<text text-anchor="middle" x="441" y="-637.8" font-family="Helvetica,sans-Serif" font-size="14.00">4. Interprets &amp; Feeds</text>
</g>
<!-- J -->
<g id="node10" class="node">
<title>J</title>
<path fill="#f5f5f5" stroke="black" d="M481.5,-525.73C481.5,-527.53 434.66,-529 377,-529 319.34,-529 272.5,-527.53 272.5,-525.73 272.5,-525.73 272.5,-496.27 272.5,-496.27 272.5,-494.47 319.34,-493 377,-493 434.66,-493 481.5,-494.47 481.5,-496.27 481.5,-496.27 481.5,-525.73 481.5,-525.73"/>
<path fill="none" stroke="black" d="M481.5,-525.73C481.5,-523.92 434.66,-522.45 377,-522.45 319.34,-522.45 272.5,-523.92 272.5,-525.73"/>
<text text-anchor="middle" x="377" y="-507.3" font-family="Helvetica,sans-Serif" font-size="14.00">Healthcare Data Warehouse</text>
</g>
<!-- I&#45;&gt;J -->
<g id="edge8" class="edge">
<title>I&#45;&gt;J</title>
<path fill="none" stroke="#1e3a5f" d="M380.19,-579.8C379.64,-568.16 378.91,-552.55 378.28,-539.24"/>
<polygon fill="#1e3a5f" stroke="#1e3a5f" points="381.77,-539 377.81,-529.18 374.78,-539.33 381.77,-539"/>
<text text-anchor="middle" x="415.5" y="-550.8" font-family="Helvetica,sans-Serif" font-size="14.00">5. Queries</text>
</g>
<!-- K -->
<g id="node11" class="node">
<title>K</title>
<path fill="#f5f5f5" stroke="black" d="M476.5,-421C476.5,-421 261.5,-421 261.5,-421 255.5,-421 249.5,-415 249.5,-409 249.5,-409 249.5,-397 249.5,-397 249.5,-391 255.5,-385 261.5,-385 261.5,-385 476.5,-385 476.5,-385 482.5,-385 488.5,-391 488.5,-397 488.5,-397 488.5,-409 488.5,-409 488.5,-415 482.5,-421 476.5,-421"/>
<text text-anchor="middle" x="369" y="-399.3" font-family="Helvetica,sans-Serif" font-size="14.00">Intelligent Response Generation</text>
</g>
<!-- J&#45;&gt;K -->
<g id="edge9" class="edge">
<title>J&#45;&gt;K</title>
<path fill="none" stroke="#1e3a5f" d="M375.71,-492.97C374.46,-476.38 372.54,-450.88 371.07,-431.43"/>
<polygon fill="#1e3a5f" stroke="#1e3a5f" points="374.55,-431.05 370.31,-421.34 367.57,-431.58 374.55,-431.05"/>
<text text-anchor="middle" x="428.5" y="-463.8" font-family="Helvetica,sans-Serif" font-size="14.00">6. Returns Data</text>
</g>
<!-- L -->
<g id="node12" class="node">
<title>L</title>
<path fill="#f5f5f5" stroke="black" d="M483,-334C483,-334 241,-334 241,-334 235,-334 229,-328 229,-322 229,-322 229,-310 229,-310 229,-304 235,-298 241,-298 241,-298 483,-298 483,-298 489,-298 495,-304 495,-310 495,-310 495,-322 495,-322 495,-328 489,-334 483,-334"/>
<text text-anchor="middle" x="362" y="-312.3" font-family="Helvetica,sans-Serif" font-size="14.00">Contextual Insights &amp; Visualizations</text>
</g>
<!-- K&#45;&gt;L -->
<g id="edge6" class="edge">
<title>K&#45;&gt;L</title>
<path fill="none" stroke="#1e3a5f" d="M367.58,-384.8C366.63,-373.16 365.34,-357.55 364.24,-344.24"/>
<polygon fill="#1e3a5f" stroke="#1e3a5f" points="367.72,-343.85 363.41,-334.18 360.75,-344.43 367.72,-343.85"/>
<text text-anchor="middle" x="408.5" y="-355.8" font-family="Helvetica,sans-Serif" font-size="14.00">7. Processes</text>
</g>
<!-- L&#45;&gt;A -->
<g id="edge10" class="edge">
<title>L&#45;&gt;A</title>
<path fill="none" stroke="#1e3a5f" d="M366.02,-297.97C369.95,-281.3 376,-255.65 380.59,-236.16"/>
<polygon fill="#1e3a5f" stroke="#1e3a5f" points="384.02,-236.88 382.91,-226.34 377.21,-235.27 384.02,-236.88"/>
<text text-anchor="middle" x="434" y="-268.8" font-family="Helvetica,sans-Serif" font-size="14.00">8. Feedback Loop</text>
</g>
</g>
</svg>
