<?xml version="1.0" encoding="UTF-8" standalone="no"?>
<!DOCTYPE svg PUBLIC "-//W3C//DTD SVG 1.1//EN"
 "http://www.w3.org/Graphics/SVG/1.1/DTD/svg11.dtd">
<!-- Generated by graphviz version 2.42.4 (0)
 -->
<!-- Title: literature_flow Pages: 1 -->
<svg width="773pt" height="714pt"
 viewBox="14.40 14.40 758.40 699.90" xmlns="http://www.w3.org/2000/svg" xmlns:xlink="http://www.w3.org/1999/xlink">
<g id="graph0" class="graph" transform="scale(1 1) rotate(0) translate(18.4 695.9)">
<title>literature_flow</title>
<polygon fill="white" stroke="transparent" points="-4,4 -4,-681.5 740,-681.5 740,4 -4,4"/>
<text text-anchor="middle" x="368" y="-659.1" font-family="Helvetica,sans-Serif" font-weight="bold" font-size="18.00" fill="#1e3a5f">PRISMA 2020 Literature Selection Flow</text>
<g id="clust1" class="cluster">
<title>cluster_ID</title>
<path fill="#f5f5f5" stroke="#1e3a5f" d="M20,-501C20,-501 334,-501 334,-501 340,-501 346,-507 346,-513 346,-513 346,-629.5 346,-629.5 346,-635.5 340,-641.5 334,-641.5 334,-641.5 20,-641.5 20,-641.5 14,-641.5 8,-635.5 8,-629.5 8,-629.5 8,-513 8,-513 8,-507 14,-501 20,-501"/>
<text text-anchor="middle" x="177" y="-629.5" font-family="Helvetica,sans-Serif" font-weight="bold" font-size="10.00" fill="#1e3a5f">IDENTIFICATION</text>
</g>
<g id="clust2" class="cluster">
<title>cluster_SC</title>
<path fill="#f5f5f5" stroke="#1e3a5f" d="M92,-200C92,-200 434,-200 434,-200 440,-200 446,-206 446,-212 446,-212 446,-481 446,-481 446,-487 440,-493 434,-493 434,-493 92,-493 92,-493 86,-493 80,-487 80,-481 80,-481 80,-212 80,-212 80,-206 86,-200 92,-200"/>
<text text-anchor="middle" x="263" y="-481" font-family="Helvetica,sans-Serif" font-weight="bold" font-size="10.00" fill="#1e3a5f">SCREENING</text>
</g>
<g id="clust3" class="cluster">
<title>cluster_QA</title>
<path fill="#f5f5f5" stroke="#1e3a5f" d="M458,-8C458,-8 594,-8 594,-8 600,-8 606,-14 606,-20 606,-20 606,-285 606,-285 606,-291 600,-297 594,-297 594,-297 458,-297 458,-297 452,-297 446,-291 446,-285 446,-285 446,-20 446,-20 446,-14 452,-8 458,-8"/>
<text text-anchor="middle" x="526" y="-285" font-family="Helvetica,sans-Serif" font-weight="bold" font-size="10.00" fill="#1e3a5f">QUALITY ASSESSMENT</text>
</g>
<g id="clust4" class="cluster">
<title>cluster_IN</title>
<path fill="#e8e8e8" stroke="#1e3a5f" d="M618,-8C618,-8 716,-8 716,-8 722,-8 728,-14 728,-20 728,-20 728,-69 728,-69 728,-75 722,-81 716,-81 716,-81 618,-81 618,-81 612,-81 606,-75 606,-69 606,-69 606,-20 606,-20 606,-14 612,-8 618,-8"/>
<text text-anchor="middle" x="667" y="-69" font-family="Helvetica,sans-Serif" font-weight="bold" font-size="10.00" fill="#1e3a5f">INCLUDED</text>
</g>
<!-- A1 -->
<g id="node1" class="node">
<title>A1</title>
<path fill="#f5f5f5" stroke="#1e3a5f" d="M338,-610.8C338,-612.7 325,-614.25 309,-614.25 293,-614.25 280,-612.7 280,-610.8 280,-610.8 280,-579.7 280,-579.7 280,-577.8 293,-576.25 309,-576.25 325,-576.25 338,-577.8 338,-579.7 338,-579.7 338,-610.8 338,-610.8"/>
<path fill="none" stroke="#1e3a5f" d="M338,-610.8C338,-608.89 325,-607.34 309,-607.34 293,-607.34 280,-608.89 280,-610.8"/>
<text text-anchor="middle" x="309" y="-598.05" font-family="Helvetica,sans-Serif" font-size="9.00">Crossref</text>
<text text-anchor="middle" x="309" y="-588.05" font-family="Helvetica,sans-Serif" font-size="9.00">(n=285)</text>
</g>
<!-- A -->
<g id="node5" class="node">
<title>A</title>
<path fill="#f5f5f5" stroke="#1e3a5f" d="M233,-547C233,-547 157,-547 157,-547 151,-547 145,-541 145,-535 145,-535 145,-521 145,-521 145,-515 151,-509 157,-509 157,-509 233,-509 233,-509 239,-509 245,-515 245,-521 245,-521 245,-535 245,-535 245,-541 239,-547 233,-547"/>
<text text-anchor="middle" x="195" y="-535.8" font-family="Helvetica,sans-Serif" font-size="9.00">Articles identified</text>
<text text-anchor="middle" x="195" y="-525.8" font-family="Helvetica,sans-Serif" font-size="9.00">after deduplication</text>
<text text-anchor="middle" x="195" y="-515.8" font-family="Helvetica,sans-Serif" font-size="9.00">(n=570)</text>
</g>
<!-- A1&#45;&gt;A -->
<g id="edge1" class="edge">
<title>A1&#45;&gt;A</title>
<path fill="none" stroke="#1e3a5f" d="M279.94,-577.62C266.5,-569.92 250.31,-560.66 235.68,-552.28"/>
<polygon fill="#1e3a5f" stroke="#1e3a5f" points="237.23,-549.14 226.82,-547.21 233.76,-555.22 237.23,-549.14"/>
</g>
<!-- A2 -->
<g id="node2" class="node">
<title>A2</title>
<path fill="#f5f5f5" stroke="#1e3a5f" d="M262,-610.8C262,-612.7 249,-614.25 233,-614.25 217,-614.25 204,-612.7 204,-610.8 204,-610.8 204,-579.7 204,-579.7 204,-577.8 217,-576.25 233,-576.25 249,-576.25 262,-577.8 262,-579.7 262,-579.7 262,-610.8 262,-610.8"/>
<path fill="none" stroke="#1e3a5f" d="M262,-610.8C262,-608.89 249,-607.34 233,-607.34 217,-607.34 204,-608.89 204,-610.8"/>
<text text-anchor="middle" x="233" y="-598.05" font-family="Helvetica,sans-Serif" font-size="9.00">PubMed</text>
<text text-anchor="middle" x="233" y="-588.05" font-family="Helvetica,sans-Serif" font-size="9.00">(n=142)</text>
</g>
<!-- A2&#45;&gt;A -->
<g id="edge2" class="edge">
<title>A2&#45;&gt;A</title>
<path fill="none" stroke="#1e3a5f" d="M222.41,-576.07C218.79,-569.85 214.66,-562.75 210.72,-555.98"/>
<polygon fill="#1e3a5f" stroke="#1e3a5f" points="213.59,-553.96 205.53,-547.08 207.54,-557.48 213.59,-553.96"/>
</g>
<!-- A3 -->
<g id="node3" class="node">
<title>A3</title>
<path fill="#f5f5f5" stroke="#1e3a5f" d="M186,-610.8C186,-612.7 173,-614.25 157,-614.25 141,-614.25 128,-612.7 128,-610.8 128,-610.8 128,-579.7 128,-579.7 128,-577.8 141,-576.25 157,-576.25 173,-576.25 186,-577.8 186,-579.7 186,-579.7 186,-610.8 186,-610.8"/>
<path fill="none" stroke="#1e3a5f" d="M186,-610.8C186,-608.89 173,-607.34 157,-607.34 141,-607.34 128,-608.89 128,-610.8"/>
<text text-anchor="middle" x="157" y="-598.05" font-family="Helvetica,sans-Serif" font-size="9.00">ArXiv</text>
<text text-anchor="middle" x="157" y="-588.05" font-family="Helvetica,sans-Serif" font-size="9.00">(n=71)</text>
</g>
<!-- A3&#45;&gt;A -->
<g id="edge3" class="edge">
<title>A3&#45;&gt;A</title>
<path fill="none" stroke="#1e3a5f" d="M167.59,-576.07C171.21,-569.85 175.34,-562.75 179.28,-555.98"/>
<polygon fill="#1e3a5f" stroke="#1e3a5f" points="182.46,-557.48 184.47,-547.08 176.41,-553.96 182.46,-557.48"/>
</g>
<!-- A4 -->
<g id="node4" class="node">
<title>A4</title>
<path fill="#f5f5f5" stroke="#1e3a5f" d="M110,-610.8C110,-612.7 88.93,-614.25 63,-614.25 37.07,-614.25 16,-612.7 16,-610.8 16,-610.8 16,-579.7 16,-579.7 16,-577.8 37.07,-576.25 63,-576.25 88.93,-576.25 110,-577.8 110,-579.7 110,-579.7 110,-610.8 110,-610.8"/>
<path fill="none" stroke="#1e3a5f" d="M110,-610.8C110,-608.89 88.93,-607.34 63,-607.34 37.07,-607.34 16,-608.89 16,-610.8"/>
<text text-anchor="middle" x="63" y="-598.05" font-family="Helvetica,sans-Serif" font-size="9.00">Semantic Scholar</text>
<text text-anchor="middle" x="63" y="-588.05" font-family="Helvetica,sans-Serif" font-size="9.00">(n=72)</text>
</g>
<!-- A4&#45;&gt;A -->
<g id="edge4" class="edge">
<title>A4&#45;&gt;A</title>
<path fill="none" stroke="#1e3a5f" d="M98.37,-576.76C113.97,-569.06 132.49,-559.9 149.13,-551.68"/>
<polygon fill="#1e3a5f" stroke="#1e3a5f" points="150.73,-554.79 158.15,-547.22 147.63,-548.51 150.73,-554.79"/>
</g>
<!-- D -->
<g id="node6" class="node">
<title>D</title>
<polygon fill="#f5f5f5" stroke="#1e3a5f" points="195,-466 121,-428 195,-390 269,-428 195,-466"/>
<text text-anchor="middle" x="195" y="-435.8" font-family="Helvetica,sans-Serif" font-size="9.00">Title/abstract</text>
<text text-anchor="middle" x="195" y="-425.8" font-family="Helvetica,sans-Serif" font-size="9.00">screening</text>
<text text-anchor="middle" x="195" y="-415.8" font-family="Helvetica,sans-Serif" font-size="9.00">(n=570)</text>
</g>
<!-- A&#45;&gt;D -->
<g id="edge5" class="edge">
<title>A&#45;&gt;D</title>
<path fill="none" stroke="#1e3a5f" d="M195,-508.57C195,-499.3 195,-487.61 195,-476.07"/>
<polygon fill="#1e3a5f" stroke="#1e3a5f" points="198.5,-476.02 195,-466.02 191.5,-476.02 198.5,-476.02"/>
</g>
<!-- E -->
<g id="node7" class="node">
<title>E</title>
<path fill="#f5f5f5" stroke="#999999" d="M217.5,-357C217.5,-357 100.5,-357 100.5,-357 94.5,-357 88.5,-351 88.5,-345 88.5,-345 88.5,-321 88.5,-321 88.5,-315 94.5,-309 100.5,-309 100.5,-309 217.5,-309 217.5,-309 223.5,-309 229.5,-315 229.5,-321 229.5,-321 229.5,-345 229.5,-345 229.5,-351 223.5,-357 217.5,-357"/>
<text text-anchor="middle" x="159" y="-345.8" font-family="Helvetica,sans-Serif" font-size="9.00">Articles excluded (n=480)</text>
<text text-anchor="middle" x="159" y="-335.8" font-family="Helvetica,sans-Serif" font-size="9.00">• Not relevant to framework</text>
<text text-anchor="middle" x="159" y="-325.8" font-family="Helvetica,sans-Serif" font-size="9.00">• Outside scope</text>
<text text-anchor="middle" x="159" y="-315.8" font-family="Helvetica,sans-Serif" font-size="9.00">• Non&#45;English</text>
</g>
<!-- D&#45;&gt;E -->
<g id="edge6" class="edge">
<title>D&#45;&gt;E</title>
<path fill="none" stroke="#1e3a5f" d="M183.01,-396.03C179.37,-386.62 175.35,-376.25 171.67,-366.73"/>
<polygon fill="#1e3a5f" stroke="#1e3a5f" points="174.85,-365.25 167.97,-357.18 168.32,-367.77 174.85,-365.25"/>
<text text-anchor="middle" x="156.56" y="-379.37" font-family="Helvetica,sans-Serif" font-size="8.00">Excluded</text>
</g>
<!-- H -->
<g id="node8" class="node">
<title>H</title>
<polygon fill="#f5f5f5" stroke="#1e3a5f" points="343,-361 248,-333 343,-305 438,-333 343,-361"/>
<text text-anchor="middle" x="343" y="-335.8" font-family="Helvetica,sans-Serif" font-size="9.00">Full&#45;text eligibility</text>
<text text-anchor="middle" x="343" y="-325.8" font-family="Helvetica,sans-Serif" font-size="9.00">screening (n=90)</text>
</g>
<!-- D&#45;&gt;H -->
<g id="edge7" class="edge">
<title>D&#45;&gt;H</title>
<path fill="none" stroke="#1e3a5f" d="M227.48,-406.59C250.37,-392.21 281.09,-372.9 305.09,-357.82"/>
<polygon fill="#1e3a5f" stroke="#1e3a5f" points="307,-360.75 313.61,-352.47 303.28,-354.83 307,-360.75"/>
<text text-anchor="middle" x="255.31" y="-382.28" font-family="Helvetica,sans-Serif" font-size="8.00">Passed</text>
</g>
<!-- I -->
<g id="node9" class="node">
<title>I</title>
<path fill="#f5f5f5" stroke="#999999" d="M416.5,-256C416.5,-256 269.5,-256 269.5,-256 263.5,-256 257.5,-250 257.5,-244 257.5,-244 257.5,-220 257.5,-220 257.5,-214 263.5,-208 269.5,-208 269.5,-208 416.5,-208 416.5,-208 422.5,-208 428.5,-214 428.5,-220 428.5,-220 428.5,-244 428.5,-244 428.5,-250 422.5,-256 416.5,-256"/>
<text text-anchor="middle" x="343" y="-244.8" font-family="Helvetica,sans-Serif" font-size="9.00">Articles excluded (n=46)</text>
<text text-anchor="middle" x="343" y="-234.8" font-family="Helvetica,sans-Serif" font-size="9.00">• No verifiable DOI/URL (n=18)</text>
<text text-anchor="middle" x="343" y="-224.8" font-family="Helvetica,sans-Serif" font-size="9.00">• Vendor marketing only (n=15)</text>
<text text-anchor="middle" x="343" y="-214.8" font-family="Helvetica,sans-Serif" font-size="9.00">• Methodological concerns (n=13)</text>
</g>
<!-- H&#45;&gt;I -->
<g id="edge8" class="edge">
<title>H&#45;&gt;I</title>
<path fill="none" stroke="#1e3a5f" d="M343,-304.95C343,-293.05 343,-278.96 343,-266.41"/>
<polygon fill="#1e3a5f" stroke="#1e3a5f" points="346.5,-266.32 343,-256.32 339.5,-266.32 346.5,-266.32"/>
<text text-anchor="middle" x="324" y="-282.96" font-family="Helvetica,sans-Serif" font-size="8.00">Excluded</text>
</g>
<!-- J -->
<g id="node10" class="node">
<title>J</title>
<polygon fill="#f5f5f5" stroke="#1e3a5f" points="526,-270 454,-232 526,-194 598,-232 526,-270"/>
<text text-anchor="middle" x="526" y="-239.8" font-family="Helvetica,sans-Serif" font-size="9.00">Source</text>
<text text-anchor="middle" x="526" y="-229.8" font-family="Helvetica,sans-Serif" font-size="9.00">classification</text>
<text text-anchor="middle" x="526" y="-219.8" font-family="Helvetica,sans-Serif" font-size="9.00">(n=44)</text>
</g>
<!-- H&#45;&gt;J -->
<g id="edge9" class="edge">
<title>H&#45;&gt;J</title>
<path fill="none" stroke="#1e3a5f" d="M393.4,-319.85C411.86,-314.3 432.5,-306.75 450,-297 465.73,-288.24 481.26,-275.99 494.14,-264.55"/>
<polygon fill="#1e3a5f" stroke="#1e3a5f" points="496.77,-266.89 501.8,-257.57 492.05,-261.72 496.77,-266.89"/>
<text text-anchor="middle" x="436.84" y="-298.56" font-family="Helvetica,sans-Serif" font-size="8.00">Passed</text>
</g>
<!-- L -->
<g id="node11" class="node">
<title>L</title>
<polygon fill="#f5f5f5" stroke="#1e3a5f" points="530,-165 476,-127 530,-89 584,-127 530,-165"/>
<text text-anchor="middle" x="530" y="-134.8" font-family="Helvetica,sans-Serif" font-size="9.00">AACODS</text>
<text text-anchor="middle" x="530" y="-124.8" font-family="Helvetica,sans-Serif" font-size="9.00">checklist</text>
<text text-anchor="middle" x="530" y="-114.8" font-family="Helvetica,sans-Serif" font-size="9.00">(n=14)</text>
</g>
<!-- J&#45;&gt;L -->
<g id="edge10" class="edge">
<title>J&#45;&gt;L</title>
<path fill="none" stroke="#1e3a5f" d="M527.41,-194.69C527.66,-188.22 527.93,-181.41 528.19,-174.71"/>
<polygon fill="#1e3a5f" stroke="#1e3a5f" points="531.7,-174.46 528.59,-164.33 524.7,-174.19 531.7,-174.46"/>
<text text-anchor="middle" x="498.51" y="-181.72" font-family="Helvetica,sans-Serif" font-size="8.00">Grey literature</text>
</g>
<!-- O -->
<g id="node13" class="node">
<title>O</title>
<path fill="#e8e8e8" stroke="#1e3a5f" d="M707.5,-54C707.5,-54 626.5,-54 626.5,-54 620.5,-54 614.5,-48 614.5,-42 614.5,-42 614.5,-28 614.5,-28 614.5,-22 620.5,-16 626.5,-16 626.5,-16 707.5,-16 707.5,-16 713.5,-16 719.5,-22 719.5,-28 719.5,-28 719.5,-42 719.5,-42 719.5,-48 713.5,-54 707.5,-54"/>
<text text-anchor="middle" x="667" y="-42.8" font-family="Helvetica,sans-Serif" font-size="9.00">Final corpus (n=41)</text>
<text text-anchor="middle" x="667" y="-32.8" font-family="Helvetica,sans-Serif" font-size="9.00">Academic: 30</text>
<text text-anchor="middle" x="667" y="-22.8" font-family="Helvetica,sans-Serif" font-size="9.00">Industry: 11</text>
</g>
<!-- J&#45;&gt;O -->
<g id="edge12" class="edge">
<title>J&#45;&gt;O</title>
<path fill="none" stroke="#1e3a5f" d="M552.83,-207.75C565.82,-195.73 581.14,-180.39 593,-165 618.13,-132.4 640.66,-90.38 654.08,-63.31"/>
<polygon fill="#1e3a5f" stroke="#1e3a5f" points="657.36,-64.58 658.6,-54.06 651.07,-61.51 657.36,-64.58"/>
<text text-anchor="middle" x="633.44" y="-138.4" font-family="Helvetica,sans-Serif" font-size="8.00">Academic</text>
</g>
<!-- N -->
<g id="node12" class="node">
<title>N</title>
<path fill="#f5f5f5" stroke="#999999" d="M579,-54C579,-54 481,-54 481,-54 475,-54 469,-48 469,-42 469,-42 469,-28 469,-28 469,-22 475,-16 481,-16 481,-16 579,-16 579,-16 585,-16 591,-22 591,-28 591,-28 591,-42 591,-42 591,-48 585,-54 579,-54"/>
<text text-anchor="middle" x="530" y="-42.8" font-family="Helvetica,sans-Serif" font-size="9.00">Articles excluded (n=3)</text>
<text text-anchor="middle" x="530" y="-32.8" font-family="Helvetica,sans-Serif" font-size="9.00">• Low objectivity</text>
<text text-anchor="middle" x="530" y="-22.8" font-family="Helvetica,sans-Serif" font-size="9.00">• Insufficient detail</text>
</g>
<!-- L&#45;&gt;N -->
<g id="edge11" class="edge">
<title>L&#45;&gt;N</title>
<path fill="none" stroke="#1e3a5f" d="M530,-88.87C530,-80.62 530,-72 530,-64.17"/>
<polygon fill="#1e3a5f" stroke="#1e3a5f" points="533.5,-64.1 530,-54.1 526.5,-64.1 533.5,-64.1"/>
<text text-anchor="middle" x="511" y="-73.92" font-family="Helvetica,sans-Serif" font-size="8.00">Excluded</text>
</g>
<!-- L&#45;&gt;O -->
<g id="edge13" class="edge">
<title>L&#45;&gt;O</title>
<path fill="none" stroke="#1e3a5f" d="M560.68,-110.2C575.85,-102.02 594.25,-91.56 610,-81 619.29,-74.78 628.98,-67.47 637.68,-60.57"/>
<polygon fill="#1e3a5f" stroke="#1e3a5f" points="640.08,-63.13 645.67,-54.13 635.69,-57.68 640.08,-63.13"/>
<text text-anchor="middle" x="595.03" y="-83.58" font-family="Helvetica,sans-Serif" font-size="8.00">Passed</text>
</g>
</g>
</svg>
