<?xml version="1.0" encoding="UTF-8" standalone="no"?>
<!DOCTYPE svg PUBLIC "-//W3C//DTD SVG 1.1//EN"
 "http://www.w3.org/Graphics/SVG/1.1/DTD/svg11.dtd">
<!-- Generated by graphviz version 2.42.4 (0)
 -->
<!-- Title: LiteratureFlow Pages: 1 -->
<svg width="1058pt" height="979pt"
 viewBox="0.00 0.00 1058.00 979.25" xmlns="http://www.w3.org/2000/svg" xmlns:xlink="http://www.w3.org/1999/xlink">
<g id="graph0" class="graph" transform="scale(1 1) rotate(0) translate(4 975.25)">
<title>LiteratureFlow</title>
<polygon fill="white" stroke="transparent" points="-4,4 -4,-975.25 1054,-975.25 1054,4 -4,4"/>
<text text-anchor="middle" x="525" y="-956.05" font-family="Times,serif" font-size="14.00">PRISMA 2020 Literature Selection Flow</text>
<g id="clust1" class="cluster">
<title>cluster_ID</title>
<polygon fill="none" stroke="black" points="8,-759 8,-940.25 440,-940.25 440,-759 8,-759"/>
<text text-anchor="middle" x="224" y="-925.05" font-family="Times,serif" font-size="14.00">Identification</text>
</g>
<g id="clust2" class="cluster">
<title>cluster_SC</title>
<polygon fill="none" stroke="black" points="70,-309 70,-740 618,-740 618,-309 70,-309"/>
<text text-anchor="middle" x="344" y="-724.8" font-family="Times,serif" font-size="14.00">Screening</text>
</g>
<g id="clust3" class="cluster">
<title>cluster_QA</title>
<polygon fill="none" stroke="black" points="626,-8 626,-435 860,-435 860,-8 626,-8"/>
<text text-anchor="middle" x="743" y="-419.8" font-family="Times,serif" font-size="14.00">Quality assessment</text>
</g>
<g id="clust4" class="cluster">
<title>cluster_IN</title>
<polygon fill="none" stroke="black" points="868,-8 868,-100 1042,-100 1042,-8 868,-8"/>
<text text-anchor="middle" x="955" y="-84.8" font-family="Times,serif" font-size="14.00">Included</text>
</g>
<!-- A1 -->
<g id="node1" class="node">
<title>A1</title>
<path fill="none" stroke="black" d="M431.5,-904.6C431.5,-907.24 414.24,-909.38 393,-909.38 371.76,-909.38 354.5,-907.24 354.5,-904.6 354.5,-904.6 354.5,-861.65 354.5,-861.65 354.5,-859.01 371.76,-856.87 393,-856.87 414.24,-856.87 431.5,-859.01 431.5,-861.65 431.5,-861.65 431.5,-904.6 431.5,-904.6"/>
<path fill="none" stroke="black" d="M431.5,-904.6C431.5,-901.97 414.24,-899.83 393,-899.83 371.76,-899.83 354.5,-901.97 354.5,-904.6"/>
<text text-anchor="middle" x="393" y="-886.92" font-family="Times,serif" font-size="14.00">Crossref</text>
<text text-anchor="middle" x="393" y="-871.92" font-family="Times,serif" font-size="14.00">(n=285)</text>
</g>
<!-- A -->
<g id="node5" class="node">
<title>A</title>
<polygon fill="none" stroke="black" points="329,-820 177,-820 177,-767 329,-767 329,-820"/>
<text text-anchor="middle" x="253" y="-804.8" font-family="Times,serif" font-size="14.00">Articles identified</text>
<text text-anchor="middle" x="253" y="-789.8" font-family="Times,serif" font-size="14.00">after deduplication</text>
<text text-anchor="middle" x="253" y="-774.8" font-family="Times,serif" font-size="14.00">(n=570)</text>
</g>
<!-- A1&#45;&gt;A -->
<g id="edge1" class="edge">
<title>A1&#45;&gt;A</title>
<path fill="none" stroke="black" d="M355.48,-858.64C339.34,-848.54 320.24,-836.59 302.93,-825.75"/>
<polygon fill="black" stroke="black" points="304.4,-822.54 294.07,-820.2 300.69,-828.48 304.4,-822.54"/>
</g>
<!-- A2 -->
<g id="node2" class="node">
<title>A2</title>
<path fill="none" stroke="black" d="M336,-904.6C336,-907.24 318.97,-909.38 298,-909.38 277.03,-909.38 260,-907.24 260,-904.6 260,-904.6 260,-861.65 260,-861.65 260,-859.01 277.03,-856.87 298,-856.87 318.97,-856.87 336,-859.01 336,-861.65 336,-861.65 336,-904.6 336,-904.6"/>
<path fill="none" stroke="black" d="M336,-904.6C336,-901.97 318.97,-899.83 298,-899.83 277.03,-899.83 260,-901.97 260,-904.6"/>
<text text-anchor="middle" x="298" y="-886.92" font-family="Times,serif" font-size="14.00">PubMed</text>
<text text-anchor="middle" x="298" y="-871.92" font-family="Times,serif" font-size="14.00">(n=142)</text>
</g>
<!-- A2&#45;&gt;A -->
<g id="edge2" class="edge">
<title>A2&#45;&gt;A</title>
<path fill="none" stroke="black" d="M284.98,-856.78C280.55,-848.14 275.5,-838.32 270.76,-829.08"/>
<polygon fill="black" stroke="black" points="273.82,-827.39 266.14,-820.09 267.6,-830.59 273.82,-827.39"/>
</g>
<!-- A3 -->
<g id="node3" class="node">
<title>A3</title>
<path fill="none" stroke="black" d="M242,-904.6C242,-907.24 227.21,-909.38 209,-909.38 190.79,-909.38 176,-907.24 176,-904.6 176,-904.6 176,-861.65 176,-861.65 176,-859.01 190.79,-856.87 209,-856.87 227.21,-856.87 242,-859.01 242,-861.65 242,-861.65 242,-904.6 242,-904.6"/>
<path fill="none" stroke="black" d="M242,-904.6C242,-901.97 227.21,-899.83 209,-899.83 190.79,-899.83 176,-901.97 176,-904.6"/>
<text text-anchor="middle" x="209" y="-886.92" font-family="Times,serif" font-size="14.00">ArXiv</text>
<text text-anchor="middle" x="209" y="-871.92" font-family="Times,serif" font-size="14.00">(n=71)</text>
</g>
<!-- A3&#45;&gt;A -->
<g id="edge3" class="edge">
<title>A3&#45;&gt;A</title>
<path fill="none" stroke="black" d="M221.73,-856.78C226.07,-848.14 231,-838.32 235.64,-829.08"/>
<polygon fill="black" stroke="black" points="238.79,-830.6 240.15,-820.09 232.53,-827.46 238.79,-830.6"/>
</g>
<!-- A4 -->
<g id="node4" class="node">
<title>A4</title>
<path fill="none" stroke="black" d="M158,-904.6C158,-907.24 126.18,-909.38 87,-909.38 47.82,-909.38 16,-907.24 16,-904.6 16,-904.6 16,-861.65 16,-861.65 16,-859.01 47.82,-856.87 87,-856.87 126.18,-856.87 158,-859.01 158,-861.65 158,-861.65 158,-904.6 158,-904.6"/>
<path fill="none" stroke="black" d="M158,-904.6C158,-901.97 126.18,-899.83 87,-899.83 47.82,-899.83 16,-901.97 16,-904.6"/>
<text text-anchor="middle" x="87" y="-886.92" font-family="Times,serif" font-size="14.00">Semantic Scholar</text>
<text text-anchor="middle" x="87" y="-871.92" font-family="Times,serif" font-size="14.00">(n=72)</text>
</g>
<!-- A4&#45;&gt;A -->
<g id="edge4" class="edge">
<title>A4&#45;&gt;A</title>
<path fill="none" stroke="black" d="M134.12,-857.25C153.24,-847.16 175.51,-835.41 195.56,-824.82"/>
<polygon fill="black" stroke="black" points="197.39,-827.81 204.6,-820.05 194.13,-821.62 197.39,-827.81"/>
</g>
<!-- D -->
<g id="node6" class="node">
<title>D</title>
<polygon fill="none" stroke="black" points="253,-709 140,-656 253,-603 366,-656 253,-709"/>
<text text-anchor="middle" x="253" y="-667.3" font-family="Times,serif" font-size="14.00">Title/abstract</text>
<text text-anchor="middle" x="253" y="-652.3" font-family="Times,serif" font-size="14.00">screening</text>
<text text-anchor="middle" x="253" y="-637.3" font-family="Times,serif" font-size="14.00">(n=570)</text>
</g>
<!-- A&#45;&gt;D -->
<g id="edge5" class="edge">
<title>A&#45;&gt;D</title>
<path fill="none" stroke="black" d="M253,-766.69C253,-753.21 253,-736.08 253,-719.38"/>
<polygon fill="black" stroke="black" points="256.5,-719.08 253,-709.08 249.5,-719.08 256.5,-719.08"/>
</g>
<!-- E -->
<g id="node7" class="node">
<title>E</title>
<polygon fill="none" stroke="black" points="294,-548 78,-548 78,-480 294,-480 294,-548"/>
<text text-anchor="middle" x="186" y="-532.8" font-family="Times,serif" font-size="14.00">Articles excluded (n=480)</text>
<text text-anchor="middle" x="186" y="-517.8" font-family="Times,serif" font-size="14.00">&#45; Not relevant to framework</text>
<text text-anchor="middle" x="186" y="-502.8" font-family="Times,serif" font-size="14.00">&#45; Outside scope</text>
<text text-anchor="middle" x="186" y="-487.8" font-family="Times,serif" font-size="14.00">&#45; Non&#45;English</text>
</g>
<!-- D&#45;&gt;E -->
<g id="edge6" class="edge">
<title>D&#45;&gt;E</title>
<path fill="none" stroke="black" d="M232.24,-612.47C227.85,-603.41 223.26,-593.9 219,-585 214.74,-576.1 210.2,-566.54 205.91,-557.43"/>
<polygon fill="black" stroke="black" points="208.96,-555.71 201.53,-548.15 202.63,-558.69 208.96,-555.71"/>
<text text-anchor="middle" x="252.5" y="-573.8" font-family="Times,serif" font-size="14.00">Excluded</text>
</g>
<!-- H -->
<g id="node8" class="node">
<title>H</title>
<polygon fill="none" stroke="black" points="461,-552 312,-514 461,-476 610,-514 461,-552"/>
<text text-anchor="middle" x="461" y="-517.8" font-family="Times,serif" font-size="14.00">Full&#45;text eligibility</text>
<text text-anchor="middle" x="461" y="-502.8" font-family="Times,serif" font-size="14.00">screening (n=90)</text>
</g>
<!-- D&#45;&gt;H -->
<g id="edge7" class="edge">
<title>D&#45;&gt;H</title>
<path fill="none" stroke="black" d="M298.65,-624.28C332.38,-601.57 378.23,-570.71 412.6,-547.58"/>
<polygon fill="black" stroke="black" points="414.73,-550.36 421.07,-541.87 410.82,-544.55 414.73,-550.36"/>
<text text-anchor="middle" x="401" y="-573.8" font-family="Times,serif" font-size="14.00">Passed</text>
</g>
<!-- I -->
<g id="node9" class="node">
<title>I</title>
<polygon fill="none" stroke="black" points="589.5,-385 332.5,-385 332.5,-317 589.5,-317 589.5,-385"/>
<text text-anchor="middle" x="461" y="-369.8" font-family="Times,serif" font-size="14.00">Articles excluded (n=46)</text>
<text text-anchor="middle" x="461" y="-354.8" font-family="Times,serif" font-size="14.00">&#45; No verifiable DOI/URL (n=18)</text>
<text text-anchor="middle" x="461" y="-339.8" font-family="Times,serif" font-size="14.00">&#45; Vendor marketing only (n=15)</text>
<text text-anchor="middle" x="461" y="-324.8" font-family="Times,serif" font-size="14.00">&#45; Methodological concerns (n=13)</text>
</g>
<!-- H&#45;&gt;I -->
<g id="edge8" class="edge">
<title>H&#45;&gt;I</title>
<path fill="none" stroke="black" d="M461,-475.66C461,-451.68 461,-420.45 461,-395.37"/>
<polygon fill="black" stroke="black" points="464.5,-395.04 461,-385.04 457.5,-395.04 464.5,-395.04"/>
<text text-anchor="middle" x="494.5" y="-446.8" font-family="Times,serif" font-size="14.00">Excluded</text>
</g>
<!-- J -->
<g id="node10" class="node">
<title>J</title>
<polygon fill="none" stroke="black" points="743,-404 634,-351 743,-298 852,-351 743,-404"/>
<text text-anchor="middle" x="743" y="-362.3" font-family="Times,serif" font-size="14.00">Source</text>
<text text-anchor="middle" x="743" y="-347.3" font-family="Times,serif" font-size="14.00">classification</text>
<text text-anchor="middle" x="743" y="-332.3" font-family="Times,serif" font-size="14.00">(n=44)</text>
</g>
<!-- H&#45;&gt;J -->
<g id="edge9" class="edge">
<title>H&#45;&gt;J</title>
<path fill="none" stroke="black" d="M514.61,-489.48C546.43,-474.92 587.22,-455.2 622,-435 645.73,-421.22 670.9,-404.34 692.11,-389.42"/>
<polygon fill="black" stroke="black" points="694.2,-392.22 700.34,-383.59 690.16,-386.51 694.2,-392.22"/>
<text text-anchor="middle" x="631" y="-446.8" font-family="Times,serif" font-size="14.00">Passed</text>
</g>
<!-- L -->
<g id="node11" class="node">
<title>L</title>
<polygon fill="none" stroke="black" points="751,-247 671,-194 751,-141 831,-194 751,-247"/>
<text text-anchor="middle" x="751" y="-205.3" font-family="Times,serif" font-size="14.00">AACODS</text>
<text text-anchor="middle" x="751" y="-190.3" font-family="Times,serif" font-size="14.00">checklist</text>
<text text-anchor="middle" x="751" y="-175.3" font-family="Times,serif" font-size="14.00">(n=14)</text>
</g>
<!-- J&#45;&gt;L -->
<g id="edge10" class="edge">
<title>J&#45;&gt;L</title>
<path fill="none" stroke="black" d="M745.62,-299.25C746.34,-285.32 747.12,-270.08 747.87,-255.66"/>
<polygon fill="black" stroke="black" points="751.38,-255.5 748.4,-245.34 744.39,-255.14 751.38,-255.5"/>
<text text-anchor="middle" x="802" y="-268.8" font-family="Times,serif" font-size="14.00">Grey literature</text>
</g>
<!-- O -->
<g id="node13" class="node">
<title>O</title>
<polygon fill="none" stroke="black" points="1034.5,-69 875.5,-69 875.5,-16 1034.5,-16 1034.5,-69"/>
<text text-anchor="middle" x="955" y="-53.8" font-family="Times,serif" font-size="14.00">Final corpus (n=41)</text>
<text text-anchor="middle" x="955" y="-38.8" font-family="Times,serif" font-size="14.00">Academic: 30</text>
<text text-anchor="middle" x="955" y="-23.8" font-family="Times,serif" font-size="14.00">Industry: 11</text>
</g>
<!-- J&#45;&gt;O -->
<g id="edge12" class="edge">
<title>J&#45;&gt;O</title>
<path fill="none" stroke="black" d="M799.95,-325.56C821.06,-314.22 843.78,-298.99 860,-280 911.24,-220 937.19,-128.84 948.22,-79.04"/>
<polygon fill="black" stroke="black" points="951.68,-79.58 950.35,-69.07 944.84,-78.12 951.68,-79.58"/>
<text text-anchor="middle" x="964.5" y="-190.3" font-family="Times,serif" font-size="14.00">Academic</text>
</g>
<!-- N -->
<g id="node12" class="node">
<title>N</title>
<polygon fill="none" stroke="black" points="843.5,-69 658.5,-69 658.5,-16 843.5,-16 843.5,-69"/>
<text text-anchor="middle" x="751" y="-53.8" font-family="Times,serif" font-size="14.00">Articles excluded (n=3)</text>
<text text-anchor="middle" x="751" y="-38.8" font-family="Times,serif" font-size="14.00">&#45; Low objectivity</text>
<text text-anchor="middle" x="751" y="-23.8" font-family="Times,serif" font-size="14.00">&#45; Insufficient detail</text>
</g>
<!-- L&#45;&gt;N -->
<g id="edge11" class="edge">
<title>L&#45;&gt;N</title>
<path fill="none" stroke="black" d="M751,-140.71C751,-120.35 751,-97.53 751,-79.12"/>
<polygon fill="black" stroke="black" points="754.5,-79.11 751,-69.11 747.5,-79.12 754.5,-79.11"/>
<text text-anchor="middle" x="784.5" y="-111.8" font-family="Times,serif" font-size="14.00">Excluded</text>
</g>
<!-- L&#45;&gt;O -->
<g id="edge13" class="edge">
<title>L&#45;&gt;O</title>
<path fill="none" stroke="black" d="M788.42,-165.58C823.24,-140.06 875.12,-102.04 911.71,-75.22"/>
<polygon fill="black" stroke="black" points="914.21,-77.74 920.2,-69 910.07,-72.09 914.21,-77.74"/>
<text text-anchor="middle" x="890" y="-111.8" font-family="Times,serif" font-size="14.00">Passed</text>
</g>
</g>
</svg>
